<svg width="15" height="14" viewBox="0 0 15 14" fill="none" xmlns="http://www.w3.org/2000/svg">
<path d="M4.28589 1.55237L4.80474 0.697502L4.28589 0.382594L3.76704 0.697502L4.28589 1.55237ZM7.28589 3.37318L6.76704 4.22804L7.28589 4.54295L7.80474 4.22804L7.28589 3.37318ZM1.28589 3.37318L0.767039 2.51831L0.285889 2.81034V3.37318H1.28589ZM1.28589 7.27491H0.285889V7.73644L0.637092 8.03587L1.28589 7.27491ZM7.28589 12.3905L6.63709 13.1515L7.28589 13.7046L7.93469 13.1515L7.28589 12.3905ZM13.2859 7.27491L13.9347 8.03587L14.2859 7.73644V7.27491H13.2859ZM13.2859 3.37318H14.2859V2.81034L13.8047 2.51831L13.2859 3.37318ZM10.2859 1.55237L10.8047 0.697502L10.2859 0.382594L9.76704 0.697502L10.2859 1.55237ZM3.76704 2.40723L6.76704 4.22804L7.80474 2.51831L4.80474 0.697502L3.76704 2.40723ZM1.80474 4.22804L4.80474 2.40723L3.76704 0.697502L0.767039 2.51831L1.80474 4.22804ZM2.28589 7.27491V3.37318H0.285889V7.27491H2.28589ZM7.93469 11.6296L1.93469 6.51395L0.637092 8.03587L6.63709 13.1515L7.93469 11.6296ZM7.93469 13.1515L13.9347 8.03587L12.6371 6.51395L6.63709 11.6296L7.93469 13.1515ZM14.2859 7.27491V3.37318H12.2859V7.27491H14.2859ZM13.8047 2.51831L10.8047 0.697502L9.76704 2.40723L12.767 4.22804L13.8047 2.51831ZM9.76704 0.697502L6.76704 2.51831L7.80474 4.22804L10.8047 2.40723L9.76704 0.697502Z" fill="white"/>
</svg>
